<svg id="remove" xmlns="http://www.w3.org/2000/svg" width="512" height="512" viewBox="0 0 512 512">
  <path id="Path_83" data-name="Path 83" d="M256,0C114.836,0,0,114.836,0,256S114.836,512,256,512,512,397.164,512,256,397.164,0,256,0Zm0,0" fill="#fff"/>
  <path id="Path_84" data-name="Path 84" d="M350.273,320.105a21.332,21.332,0,1,1-30.168,30.168L256,286.164l-64.105,64.109a21.332,21.332,0,0,1-30.168-30.168L225.836,256l-64.109-64.105a21.332,21.332,0,0,1,30.168-30.168L256,225.835l64.105-64.109a21.332,21.332,0,0,1,30.168,30.168L286.164,256Zm0,0" fill="#00deab"/>
</svg>
