<svg xmlns="http://www.w3.org/2000/svg" width="688.134" height="510.5" viewBox="0 0 688.134 510.5">
  <g id="undraw_Accept_request_re_d81h" transform="translate(0)">
    <path id="Path_85" data-name="Path 85" d="M903.287,655.431a24.146,24.146,0,1,0,0,48.291h0a24.146,24.146,0,1,0,0-48.291Z" transform="translate(-255.933 -194.75)" fill="#ccc"/>
    <path id="Path_395" data-name="Path 395" d="M901,689.6a2.931,2.931,0,0,1-1.763-.586L899.2,689l-6.64-5.079a2.951,2.951,0,0,1,3.591-4.684l4.3,3.3,10.164-13.26a2.95,2.95,0,0,1,4.135-.546h0l-.063.088.065-.088a2.953,2.953,0,0,1,.546,4.136L903.346,688.45A2.952,2.952,0,0,1,901,689.6Z" transform="translate(-255.933 -194.75)" fill="#fff"/>
    <path id="Path_86" data-name="Path 86" d="M594.783,499.316H583.351l-5.436-44.1,16.872,0Z" fill="#ffb8b8"/>
    <path id="Path_87" data-name="Path 87" d="M575.185,496.048h22.048V509.93H561.3a13.882,13.882,0,0,1,13.882-13.882Z" fill="#2f2e41"/>
    <path id="Path_88" data-name="Path 88" d="M549.283,499.316H537.851l-5.436-44.1,16.872,0Z" fill="#ffb8b8"/>
    <path id="Path_89" data-name="Path 89" d="M529.685,496.048h22.048V509.93H515.8a13.882,13.882,0,0,1,13.882-13.882Z" fill="#2f2e41"/>
    <path id="Path_90" data-name="Path 90" d="M859.523,541.616a9.377,9.377,0,0,1,1.976-14.242l-3.541-21.133,12.318-5.284,4.581,29.915a9.428,9.428,0,0,1-15.334,10.745Z" transform="translate(-255.933 -194.75)" fill="#ffb8b8"/>
    <path id="Path_91" data-name="Path 91" d="M763.085,531.63a9.377,9.377,0,0,0,.4-14.373L770.472,497,759.2,489.753l-9.46,28.747a9.428,9.428,0,0,0,13.349,13.13Z" transform="translate(-255.933 -194.75)" fill="#ffb8b8"/>
    <circle id="Ellipse_5" data-name="Ellipse 5" cx="24.561" cy="24.561" r="24.561" transform="translate(541.141 138.519)" fill="#ffb8b8"/>
    <path id="Path_92" data-name="Path 92" d="M762.326,516.474a4.5,4.5,0,0,1-1.245-.176l-7.159-2.055a4.508,4.508,0,0,1-3.088-5.551l14.774-52.162,20.6-50.575c2.049-5.028,6.329-8.325,11.17-8.605a11.446,11.446,0,0,1,10.778,6.277h0a15.621,15.621,0,0,1,.357,13.77L785.1,468.607,766.482,513.69a4.5,4.5,0,0,1-4.156,2.784Z" transform="translate(-255.933 -194.75)" fill="#00deab"/>
    <path id="Path_93" data-name="Path 93" d="M835.495,378.427l-13.647.243a9.074,9.074,0,0,1-8.9-11.59,21.13,21.13,0,0,0,.656-3.013,15.224,15.224,0,0,0,.09-3.353,4.952,4.952,0,0,0-9.554-1.408h0c-2.295.033-7.183-.715-9.478-.683-4.872-12.49,5.745-28.833,17.174-34.972,11.651-6.258,26.775.109,31.241,13.152,6.2.111,11.235,6.225,12.033,13.106s-2.032,14.068-6.363,19.342S838.734,378.369,835.495,378.427Z" transform="translate(-255.933 -194.75)" fill="#2f2e41"/>
    <path id="Path_94" data-name="Path 94" d="M790.637,689.949a4.515,4.515,0,0,1-4.461-4.01L781.112,515.7l63.787,4.541.049.41c14.415,120.663,9.487,162.432,9.436,162.839a4.5,4.5,0,0,1-5.076,4.2l-14.1.338a4.5,4.5,0,0,1-3.989-4.3l-13.171-123.3a1.406,1.406,0,0,0-1.466-1.056,1.463,1.463,0,0,0-1.439,1.177l-5.089,123.7a4.481,4.481,0,0,1-4.041,4.67l-14.932.993a4.452,4.452,0,0,1-.447.022Z" transform="translate(-255.933 -194.75)" fill="#2f2e41"/>
    <path id="Path_95" data-name="Path 95" d="M817.106,536.045c-.382,0-.762-.006-1.145-.018-18.342-.552-32.692-14.429-36.653-18.669a4.478,4.478,0,0,1-1.081-4.1L788.808,468.5,786,429.58a38.369,38.369,0,0,1,10.506-29.633,31.664,31.664,0,0,1,24.387-9.866c17.855.852,31.941,16.811,32.069,36.332.2,30.235-.693,32.312-.985,32.995-8.911,20.8-4.044,49.989-2.34,58.441a4.516,4.516,0,0,1-1.337,4.187C838.5,531.335,828.009,536.044,817.106,536.045Z" transform="translate(-255.933 -194.75)" fill="#00deab"/>
    <path id="Path_96" data-name="Path 96" d="M863.171,524.666a4.5,4.5,0,0,1-4.38-3.494l-10.918-47.557-14.631-54.357a15.621,15.621,0,0,1,2.627-13.522,11.456,11.456,0,0,1,11.667-4.41c4.729,1.076,8.405,5.035,9.595,10.333l11.955,53.229,5.962,53.941a4.509,4.509,0,0,1-3.963,4.965l-7.4.844A4.489,4.489,0,0,1,863.171,524.666Z" transform="translate(-255.933 -194.75)" fill="#00deab"/>
    <path id="Path_97" data-name="Path 97" d="M548.933,246.75h-267a26,26,0,1,1,0-52h267a26,26,0,0,1,0,52Z" transform="translate(-255.933 -194.75)" fill="#e6e6e6"/>
    <path id="Path_98" data-name="Path 98" d="M281.933,203.25a17.5,17.5,0,0,0,0,35h267a17.5,17.5,0,0,0,0-35Z" transform="translate(-255.933 -194.75)" fill="#fff"/>
    <path id="Path_99" data-name="Path 99" d="M643.287,196.431a24.146,24.146,0,1,0,0,48.291h0a24.146,24.146,0,1,0,0-48.291Z" transform="translate(-255.933 -194.75)" fill="#00deab"/>
    <path id="Path_395-2" data-name="Path 395" d="M641,230.6a2.93,2.93,0,0,1-1.763-.586L639.2,230l-6.64-5.079a2.951,2.951,0,1,1,3.591-4.684l4.3,3.3,10.163-13.259a2.949,2.949,0,0,1,4.135-.546h0l-.063.088.065-.088a2.953,2.953,0,0,1,.546,4.136L643.346,229.45A2.951,2.951,0,0,1,641,230.6Z" transform="translate(-255.933 -194.75)" fill="#fff"/>
    <path id="Path_100" data-name="Path 100" d="M548.933,334.75h-267a26,26,0,0,1,0-52h267a26,26,0,0,1,0,52Z" transform="translate(-255.933 -194.75)" fill="#e6e6e6"/>
    <path id="Path_101" data-name="Path 101" d="M281.933,291.25a17.5,17.5,0,0,0,0,35h267a17.5,17.5,0,0,0,0-35Z" transform="translate(-255.933 -194.75)" fill="#fff"/>
    <path id="Path_102" data-name="Path 102" d="M643.287,284.431a24.146,24.146,0,1,0,0,48.291h0a24.146,24.146,0,1,0,0-48.291Z" transform="translate(-255.933 -194.75)" fill="#00deab"/>
    <path id="Path_395-3" data-name="Path 395" d="M641,318.605a2.93,2.93,0,0,1-1.763-.586L639.2,318l-6.64-5.079a2.951,2.951,0,1,1,3.591-4.684l4.3,3.3,10.163-13.259a2.949,2.949,0,0,1,4.135-.546h0l-.063.088.065-.088a2.953,2.953,0,0,1,.546,4.136L643.346,317.45A2.951,2.951,0,0,1,641,318.6Z" transform="translate(-255.933 -194.75)" fill="#fff"/>
    <path id="Path_103" data-name="Path 103" d="M548.933,422.75h-267a26,26,0,1,1,0-52h267a26,26,0,0,1,0,52Z" transform="translate(-255.933 -194.75)" fill="#e6e6e6"/>
    <path id="Path_104" data-name="Path 104" d="M281.933,379.25a17.5,17.5,0,0,0,0,35h267a17.5,17.5,0,0,0,0-35Z" transform="translate(-255.933 -194.75)" fill="#fff"/>
    <path id="Path_105" data-name="Path 105" d="M643.287,372.431a24.146,24.146,0,1,0,0,48.291h0a24.146,24.146,0,1,0,0-48.291Z" transform="translate(-255.933 -194.75)" fill="#e6e6e6"/>
    <path id="Path_106" data-name="Path 106" d="M943.067,705.25h-209a1,1,0,0,1,0-2h209a1,1,0,0,1,0,2Z" transform="translate(-255.933 -194.75)" fill="#ccc"/>
  </g>
</svg>
